<svg id="Layer_1" data-name="Layer 1" xmlns="http://www.w3.org/2000/svg" viewBox="0 0 266.74 376.42"><defs><style>.cls-1{fill:#0e1014;stroke:#fff;stroke-miterlimit:10;stroke-width:6px;}.cls-2{fill:#4ed1d8;}</style></defs><title>2</title><path class="cls-1" d="M450.94,433.35q-56.55,0-93-29.55t-44.07-78.46l64.19-15.79q5.61,32.61,25.73,48.91t49.68,16.3a71.08,71.08,0,0,0,28.27-5.35,45.9,45.9,0,0,0,19.87-15.79Q509,343.18,509,328.91A35.86,35.86,0,0,0,501.38,306q-7.63-9.68-23.18-17.83a339.33,339.33,0,0,0-39-16.82q-33.63-13.23-56.3-28.27T349,208.16q-11.21-19.87-11.21-46.88,0-28.53,14-50.44T391.08,76.2q25.21-12.74,58.84-12.74,35.65,0,63.43,16.56t44.58,49.16l-52.47,32.1Q494.75,141.93,480.24,132a56,56,0,0,0-32.36-9.94,51.2,51.2,0,0,0-22.67,4.84,40.31,40.31,0,0,0-15.79,13.25,33.42,33.42,0,0,0-5.86,19.61,33.86,33.86,0,0,0,6.88,20.89q6.87,9.18,22.41,17.58t40.51,17.58q33.11,12.22,55.28,27t33.88,34.39q11.72,19.62,11.72,47.64,0,31.59-15.54,56.3T515.65,419.6Q488.13,433.35,450.94,433.35Z" transform="translate(-310.5 -60.46)"/><path class="cls-2" d="M471.74,436.88q-47.89,0-79-25c-20.72-16.64-29.46-40.28-34.21-68.47l10.19-2.55c4.75,27.85,12.72,50.22,31.92,64.65s42.87,21.66,71.07,21.66q26.49,0,47.38-11.21a87,87,0,0,0,33.12-30.57q12.22-19.37,12.23-43.82,0-28-14.27-44.58t-36.68-27.26q-22.42-10.69-47.38-19.87a461.89,461.89,0,0,1-45.35-20.12q-21.39-11-34.39-27.26t-13-42.29q0-24.45,12-43.56T419,86.6q21.64-10.95,49.68-10.95,30.57,0,53.75,13.75c15.45,9.17,28.52,21.3,38,38.29L551.62,133a98.37,98.37,0,0,0-33.51-34.72q-20.39-13-49.42-13-25.49,0-44.59,9.68T394.3,121.5q-10.69,16.81-10.7,38.21,0,22.93,11.72,37.7t32.35,25a497.61,497.61,0,0,0,46.62,19.87,450.41,450.41,0,0,1,50.18,21.91q22.66,11.73,36.43,29.8t13.76,46.62q0,28-13.5,49.68a96,96,0,0,1-36.69,34.13Q501.28,436.89,471.74,436.88Z" transform="translate(-310.5 -60.46)"/></svg>